<?xml version="1.0" encoding="UTF-8"?>
<!DOCTYPE svg PUBLIC "-//W3C//DTD SVG 1.1//EN" "http://www.w3.org/Graphics/SVG/1.1/DTD/svg11.dtd">
<svg xmlns="http://www.w3.org/2000/svg" version="1.1" width="512px" height="512px" style="shape-rendering:geometricPrecision; text-rendering:geometricPrecision; image-rendering:optimizeQuality; fill-rule:evenodd; clip-rule:evenodd" xmlns:xlink="http://www.w3.org/1999/xlink">
<g><path style="opacity:0.994" fill="#000000" d="M 511.5,77.5 C 511.5,85.8333 511.5,94.1667 511.5,102.5C 340.833,102.5 170.167,102.5 -0.5,102.5C -0.5,94.1667 -0.5,85.8333 -0.5,77.5C 5.7011,51.4631 21.7011,34.6297 47.5,27C 116.798,25.8415 186.131,25.3415 255.5,25.5C 324.869,25.3415 394.202,25.8415 463.5,27C 489.299,34.6297 505.299,51.4631 511.5,77.5 Z"/></g>
<g><path style="opacity:0.991" fill="#000000" d="M -0.5,127.5 C 170.167,127.5 340.833,127.5 511.5,127.5C 511.5,229.5 511.5,331.5 511.5,433.5C 505.651,460.519 489.317,477.685 462.5,485C 393.535,486.158 324.535,486.658 255.5,486.5C 186.465,486.658 117.465,486.158 48.5,485C 21.6825,477.685 5.34919,460.519 -0.5,433.5C -0.5,331.5 -0.5,229.5 -0.5,127.5 Z M 85.5,205.5 C 122.168,205.333 158.835,205.5 195.5,206C 199,207.5 201.5,210 203,213.5C 203.983,242.586 203.65,271.586 202,300.5C 200.039,303.135 197.539,304.969 194.5,306C 158.167,306.667 121.833,306.667 85.5,306C 80.9014,304.402 78.0681,301.235 77,296.5C 76.3333,269.5 76.3333,242.5 77,215.5C 78.2613,210.745 81.0947,207.412 85.5,205.5 Z M 264.5,205.5 C 318.168,205.333 371.834,205.5 425.5,206C 433.842,210.026 436.008,216.193 432,224.5C 430.269,226.617 428.102,228.117 425.5,229C 371.833,229.667 318.167,229.667 264.5,229C 257.061,225.858 254.561,220.358 257,212.5C 258.742,209.254 261.242,206.921 264.5,205.5 Z M 268.5,281.5 C 319.501,281.333 370.501,281.5 421.5,282C 432.771,284.377 436.271,290.877 432,301.5C 430.269,303.617 428.102,305.117 425.5,306C 371.833,306.667 318.167,306.667 264.5,306C 257.567,302.628 255.067,297.128 257,289.5C 259.476,284.693 263.31,282.027 268.5,281.5 Z M 87.5,358.5 C 199.5,358.333 311.5,358.5 423.5,359C 433.96,363.054 436.46,369.887 431,379.5C 429.065,381.102 426.899,382.269 424.5,383C 311.833,383.667 199.167,383.667 86.5,383C 77.4191,379.514 74.9191,373.347 79,364.5C 81.3218,361.605 84.1552,359.605 87.5,358.5 Z"/></g>
<g><path style="opacity:0.97" fill="#000000" d="M 101.5,229.5 C 127.5,229.5 153.5,229.5 179.5,229.5C 179.5,246.833 179.5,264.167 179.5,281.5C 153.5,281.5 127.5,281.5 101.5,281.5C 101.5,264.167 101.5,246.833 101.5,229.5 Z"/></g>
</svg>
